<svg xmlns="http://www.w3.org/2000/svg" width="63" height="11" viewBox="0 0 63 11" fill="none">
<path d="M29.9342 1.87441C30.631 0.624802 30.9792 0 31.5 0C32.0208 0 32.369 0.624802 33.0658 1.87441L33.2462 2.19781C33.4442 2.55311 33.5432 2.73076 33.6972 2.84791C33.8512 2.96506 34.0437 3.00851 34.4287 3.09541L34.7785 3.17461C36.1314 3.48096 36.8074 3.63386 36.9685 4.15141C37.1291 4.66841 36.6682 5.20797 35.7459 6.28652L35.5072 6.56537C35.2454 6.87172 35.114 7.02517 35.0551 7.21437C34.9963 7.40412 35.0161 7.60872 35.0557 8.01737L35.092 8.38973C35.2311 9.82908 35.301 10.5485 34.8797 10.868C34.4584 11.1881 33.8248 10.8961 32.5587 10.3131L32.2304 10.1624C31.8707 9.99628 31.6908 9.91378 31.5 9.91378C31.3092 9.91378 31.1293 9.99628 30.7691 10.1624L30.4418 10.3131C29.1752 10.8961 28.5416 11.1876 28.1209 10.8686C27.699 10.5485 27.7689 9.82908 27.908 8.38973L27.9443 8.01792C27.9839 7.60872 28.0037 7.40412 27.9443 7.21492C27.886 7.02517 27.7546 6.87172 27.4928 6.56592L27.2541 6.28652C26.3318 5.20852 25.8709 4.66896 26.0315 4.15141C26.1926 3.63386 26.8691 3.48041 28.2221 3.17461L28.5719 3.09541C28.9563 3.00851 29.1483 2.96506 29.3028 2.84791C29.4568 2.73076 29.5558 2.55311 29.7538 2.19781L29.9342 1.87441Z" fill="#FF6F28"/>
<path d="M42.9342 1.87441C43.631 0.624802 43.9792 0 44.5 0C45.0208 0 45.369 0.624802 46.0658 1.87441L46.2462 2.19781C46.4442 2.55311 46.5432 2.73076 46.6972 2.84791C46.8512 2.96506 47.0437 3.00851 47.4287 3.09541L47.7785 3.17461C49.1314 3.48096 49.8074 3.63386 49.9685 4.15141C50.1291 4.66841 49.6682 5.20797 48.7459 6.28652L48.5072 6.56537C48.2454 6.87172 48.114 7.02517 48.0551 7.21437C47.9963 7.40412 48.0161 7.60872 48.0557 8.01737L48.092 8.38973C48.2311 9.82908 48.301 10.5485 47.8797 10.868C47.4584 11.1881 46.8248 10.8961 45.5587 10.3131L45.2304 10.1624C44.8707 9.99628 44.6908 9.91378 44.5 9.91378C44.3092 9.91378 44.1293 9.99628 43.7691 10.1624L43.4418 10.3131C42.1752 10.8961 41.5416 11.1876 41.1209 10.8686C40.699 10.5485 40.7689 9.82908 40.908 8.38973L40.9443 8.01792C40.9839 7.60872 41.0037 7.40412 40.9443 7.21492C40.886 7.02517 40.7546 6.87172 40.4928 6.56592L40.2541 6.28652C39.3318 5.20852 38.8709 4.66896 39.0315 4.15141C39.1926 3.63386 39.8691 3.48041 41.2221 3.17461L41.5719 3.09541C41.9563 3.00851 42.1483 2.96506 42.3028 2.84791C42.4568 2.73076 42.5558 2.55311 42.7538 2.19781L42.9342 1.87441Z" fill="#FF6F28"/>
<path d="M52.0315 4.15141L52.5089 4.30006C52.5225 4.25626 52.5587 4.16882 52.8632 4.04876C53.1772 3.925 53.6389 3.81903 54.3323 3.66231L54.3325 3.66227L54.6821 3.58311C54.6822 3.58309 54.6822 3.58308 54.6823 3.58307C54.7048 3.57797 54.7273 3.57294 54.7496 3.56793C55.066 3.49707 55.3614 3.43089 55.6048 3.24637L55.6055 3.24585C55.8452 3.06352 55.9935 2.79619 56.1555 2.50423C56.1671 2.48339 56.1787 2.46244 56.1905 2.44138C56.1905 2.44132 56.1905 2.44126 56.1906 2.4412L56.3708 2.11798L56.3709 2.11792C56.7275 1.47847 56.9683 1.04909 57.1801 0.772607C57.389 0.499783 57.4772 0.499956 57.4992 0.499999L57.5 0.5L57.5008 0.499999C57.5228 0.499956 57.611 0.499783 57.8199 0.772607C58.0317 1.04909 58.2725 1.47847 58.6291 2.11792L58.6292 2.11798L58.8094 2.4412C58.8095 2.44125 58.8095 2.44131 58.8095 2.44136C58.8095 2.44137 58.8095 2.44137 58.8095 2.44138C58.8213 2.46244 58.8329 2.48339 58.8445 2.50422C59.0065 2.79619 59.1548 3.06352 59.3945 3.24585C59.6376 3.43082 59.9341 3.49712 60.2502 3.56781C60.2729 3.57288 60.2957 3.57798 60.3186 3.58314L60.6681 3.66227C61.3616 3.81929 61.8232 3.92525 62.1371 4.04898C62.4407 4.16866 62.4773 4.25583 62.491 4.29974C62.5062 4.34851 62.5231 4.45141 62.3402 4.74204C62.1539 5.03791 61.8378 5.40971 61.3661 5.96138C61.366 5.96144 61.3659 5.9615 61.3659 5.96156L61.1274 6.24023L61.1271 6.24054C61.1116 6.25863 61.0962 6.27657 61.081 6.2944C60.8644 6.54688 60.6678 6.77614 60.5777 7.06587L60.5776 7.06626C60.488 7.35492 60.5178 7.65717 60.5512 7.99581C60.5534 8.0189 60.5557 8.04216 60.558 8.0656L60.558 8.06589L60.5943 8.43784C60.5943 8.43785 60.5943 8.43787 60.5943 8.43789C60.6654 9.17365 60.7123 9.67078 60.6965 10.0266C60.6807 10.3815 60.6064 10.4477 60.5775 10.4697L60.5772 10.4699L60.5764 10.4705C60.5547 10.487 60.4872 10.5384 60.1738 10.4486C59.8502 10.3558 59.4169 10.1578 58.7679 9.85892L58.7673 9.85866L58.44 9.70844C58.4398 9.70835 58.4396 9.70825 58.4394 9.70816C58.4189 9.69868 58.3984 9.68919 58.3781 9.67975C58.0827 9.54268 57.805 9.41378 57.5 9.41378C57.1954 9.41378 56.9178 9.54243 56.6224 9.67931C56.6017 9.68892 56.5809 9.69857 56.5599 9.70822C56.5598 9.70826 56.5598 9.70829 56.5597 9.70832L56.2328 9.85888C55.5836 10.1577 55.15 10.3557 54.8264 10.4484C54.5127 10.5384 54.4451 10.487 54.4237 10.4707L54.4231 10.4703C54.3937 10.4479 54.3195 10.3814 54.3036 10.0265C54.2877 9.67074 54.3346 9.17364 54.4057 8.43784L54.442 8.06651L54.442 8.06608C54.4443 8.04241 54.4466 8.01892 54.4489 7.99559C54.4822 7.65715 54.5121 7.35399 54.4214 7.06516L53.9443 7.21492M52.0315 4.15141L52.509 4.29959C52.4937 4.34882 52.477 4.45198 52.6598 4.74245C52.8461 5.0383 53.1622 5.41 53.634 5.96146L53.6343 5.96175L53.8726 6.24075C53.8878 6.25852 53.903 6.27615 53.918 6.29367C54.135 6.54617 54.3326 6.77625 54.4223 7.06808L53.9443 7.21492M52.0315 4.15141C52.1926 3.63386 52.8691 3.48041 54.2221 3.17461M52.0315 4.15141L54.2221 3.17461M53.9443 7.21492C54.0037 7.40412 53.9839 7.60872 53.9443 8.01792L53.4928 6.56592L53.4934 6.56661C53.7548 6.87195 53.8861 7.02531 53.9443 7.21492ZM54.2221 3.17461L54.5719 3.09541L54.2221 3.17461Z" stroke="#FF6F28"/>
<path d="M3.93419 1.87441C4.63102 0.624802 4.97916 0 5.5 0C6.02084 0 6.36898 0.624802 7.06581 1.87441L7.24621 2.19781C7.4442 2.55311 7.5432 2.73076 7.6972 2.84791C7.85119 2.96506 8.04369 3.00851 8.42868 3.09541L8.77847 3.17461C10.1314 3.48096 10.8074 3.63386 10.9685 4.15141C11.1291 4.66841 10.6682 5.20797 9.7459 6.28652L9.5072 6.56537C9.24541 6.87172 9.11396 7.02517 9.05512 7.21437C8.99627 7.40412 9.01607 7.60872 9.05567 8.01737L9.09196 8.38973C9.23111 9.82908 9.30096 10.5485 8.87967 10.868C8.45838 11.1881 7.82479 10.8961 6.55872 10.3131L6.23038 10.1624C5.87069 9.99628 5.69084 9.91378 5.5 9.91378C5.30915 9.91378 5.12931 9.99628 4.76907 10.1624L4.44182 10.3131C3.1752 10.8961 2.54162 11.1876 2.12088 10.8686C1.69904 10.5485 1.76889 9.82908 1.90803 8.38973L1.94433 8.01792C1.98393 7.60872 2.00373 7.40412 1.94433 7.21492C1.88603 7.02517 1.75459 6.87172 1.49279 6.56592L1.2541 6.28652C0.331772 5.20852 -0.129118 4.66896 0.0314785 4.15141C0.192625 3.63386 0.869109 3.48041 2.22208 3.17461L2.57187 3.09541C2.95631 3.00851 3.14826 2.96506 3.3028 2.84791C3.4568 2.73076 3.5558 2.55311 3.75379 2.19781L3.93419 1.87441Z" fill="#FF6F28"/>
<path d="M16.9342 1.87441C17.631 0.624802 17.9792 0 18.5 0C19.0208 0 19.369 0.624802 20.0658 1.87441L20.2462 2.19781C20.4442 2.55311 20.5432 2.73076 20.6972 2.84791C20.8512 2.96506 21.0437 3.00851 21.4287 3.09541L21.7785 3.17461C23.1314 3.48096 23.8074 3.63386 23.9685 4.15141C24.1291 4.66841 23.6682 5.20797 22.7459 6.28652L22.5072 6.56537C22.2454 6.87172 22.114 7.02517 22.0551 7.21437C21.9963 7.40412 22.0161 7.60872 22.0557 8.01737L22.092 8.38973C22.2311 9.82908 22.301 10.5485 21.8797 10.868C21.4584 11.1881 20.8248 10.8961 19.5587 10.3131L19.2304 10.1624C18.8707 9.99628 18.6908 9.91378 18.5 9.91378C18.3092 9.91378 18.1293 9.99628 17.7691 10.1624L17.4418 10.3131C16.1752 10.8961 15.5416 11.1876 15.1209 10.8686C14.699 10.5485 14.7689 9.82908 14.908 8.38973L14.9443 8.01792C14.9839 7.60872 15.0037 7.40412 14.9443 7.21492C14.886 7.02517 14.7546 6.87172 14.4928 6.56592L14.2541 6.28652C13.3318 5.20852 12.8709 4.66896 13.0315 4.15141C13.1926 3.63386 13.8691 3.48041 15.2221 3.17461L15.5719 3.09541C15.9563 3.00851 16.1483 2.96506 16.3028 2.84791C16.4568 2.73076 16.5558 2.55311 16.7538 2.19781L16.9342 1.87441Z" fill="#FF6F28"/>
</svg>