<svg xmlns="http://www.w3.org/2000/svg" width="19" height="19" viewBox="0 0 19 19" fill="none">
  <path fill-rule="evenodd" clip-rule="evenodd" d="M6.03649 13.146L11.5052 9.50012L6.03649 5.85428C5.96467 5.80641 5.90299 5.74485 5.85496 5.67314C5.80693 5.60142 5.7735 5.52095 5.75657 5.43631C5.73964 5.35167 5.73955 5.26453 5.7563 5.17986C5.77306 5.09519 5.80632 5.01464 5.8542 4.94283C5.90207 4.87101 5.96363 4.80933 6.03534 4.7613C6.10706 4.71327 6.18753 4.67984 6.27217 4.66291C6.35681 4.64598 6.44395 4.64589 6.52862 4.66264C6.61329 4.67939 6.69384 4.71266 6.76565 4.76053L12.965 8.89345C13.0649 8.96004 13.1468 9.05025 13.2034 9.15608C13.26 9.26191 13.2897 9.38009 13.2897 9.50012C13.2897 9.62015 13.26 9.73832 13.2034 9.84415C13.1468 9.94998 13.0649 10.0402 12.965 10.1068L6.76565 14.2397C6.69384 14.2876 6.61329 14.3208 6.52862 14.3376C6.44395 14.3543 6.35681 14.3543 6.27217 14.3373C6.18753 14.3204 6.10706 14.287 6.03534 14.2389C5.96363 14.1909 5.90207 14.1292 5.8542 14.0574C5.80632 13.9856 5.77306 13.9051 5.7563 13.8204C5.73955 13.7357 5.73964 13.6486 5.75657 13.5639C5.7735 13.4793 5.80693 13.3988 5.85496 13.3271C5.90299 13.2554 5.96467 13.1938 6.03649 13.146Z" fill="#F77E23"/>
</svg>