<svg xmlns="http://www.w3.org/2000/svg" width="19" height="19" viewBox="0 0 19 19" fill="none">
  <path fill-rule="evenodd" clip-rule="evenodd" d="M12.9635 13.146L7.49476 9.50012L12.9635 5.85428C13.0353 5.80641 13.097 5.74485 13.145 5.67314C13.1931 5.60142 13.2265 5.52095 13.2434 5.43631C13.2604 5.35167 13.2604 5.26453 13.2437 5.17986C13.2269 5.09519 13.1937 5.01464 13.1458 4.94283C13.0979 4.87101 13.0364 4.80933 12.9647 4.7613C12.8929 4.71327 12.8125 4.67984 12.7278 4.66291C12.6432 4.64598 12.5561 4.64589 12.4714 4.66264C12.3867 4.67939 12.3062 4.71266 12.2343 4.76053L6.03497 8.89345C5.9351 8.96004 5.85322 9.05025 5.79659 9.15608C5.73996 9.26191 5.71033 9.38009 5.71033 9.50012C5.71033 9.62015 5.73996 9.73832 5.79659 9.84415C5.85322 9.94998 5.9351 10.0402 6.03497 10.1068L12.2343 14.2397C12.3062 14.2876 12.3867 14.3208 12.4714 14.3376C12.5561 14.3543 12.6432 14.3543 12.7278 14.3373C12.8125 14.3204 12.8929 14.287 12.9647 14.2389C13.0364 14.1909 13.0979 14.1292 13.1458 14.0574C13.1937 13.9856 13.2269 13.9051 13.2437 13.8204C13.2604 13.7357 13.2604 13.6486 13.2434 13.5639C13.2265 13.4793 13.1931 13.3988 13.145 13.3271C13.097 13.2554 13.0353 13.1938 12.9635 13.146Z" fill="#F77E23"/>
</svg>