<svg width="30" height="30" viewBox="0 0 30 30" fill="none" xmlns="http://www.w3.org/2000/svg">
<g clip-path="url(#clip0_1_1615)">
<path d="M22.3333 5H5.66667C5.22464 5 4.80072 5.17559 4.48816 5.48816C4.17559 5.80072 4 6.22464 4 6.66667V23.3333C4 23.7754 4.17559 24.1993 4.48816 24.5118C4.80072 24.8244 5.22464 25 5.66667 25H16.9885C17.2074 25.0004 17.4242 24.9574 17.6264 24.8735C17.8287 24.7897 18.0123 24.6666 18.1667 24.5115L23.5115 19.1667C23.6666 19.0123 23.7897 18.8287 23.8735 18.6264C23.9574 18.4242 24.0004 18.2074 24 17.9885V6.66667C24 6.22464 23.8244 5.80072 23.5118 5.48816C23.1993 5.17559 22.7754 5 22.3333 5ZM10.6667 10.8333H17.3333C17.5543 10.8333 17.7663 10.9211 17.9226 11.0774C18.0789 11.2337 18.1667 11.4457 18.1667 11.6667C18.1667 11.8877 18.0789 12.0996 17.9226 12.2559C17.7663 12.4122 17.5543 12.5 17.3333 12.5H10.6667C10.4457 12.5 10.2337 12.4122 10.0774 12.2559C9.92113 12.0996 9.83333 11.8877 9.83333 11.6667C9.83333 11.4457 9.92113 11.2337 10.0774 11.0774C10.2337 10.9211 10.4457 10.8333 10.6667 10.8333ZM14 19.1667H10.6667C10.4457 19.1667 10.2337 19.0789 10.0774 18.9226C9.92113 18.7663 9.83333 18.5543 9.83333 18.3333C9.83333 18.1123 9.92113 17.9004 10.0774 17.7441C10.2337 17.5878 10.4457 17.5 10.6667 17.5H14C14.221 17.5 14.433 17.5878 14.5893 17.7441C14.7455 17.9004 14.8333 18.1123 14.8333 18.3333C14.8333 18.5543 14.7455 18.7663 14.5893 18.9226C14.433 19.0789 14.221 19.1667 14 19.1667ZM10.6667 15.8333C10.4457 15.8333 10.2337 15.7455 10.0774 15.5893C9.92113 15.433 9.83333 15.221 9.83333 15C9.83333 14.779 9.92113 14.567 10.0774 14.4107C10.2337 14.2545 10.4457 14.1667 10.6667 14.1667H17.3333C17.5543 14.1667 17.7663 14.2545 17.9226 14.4107C18.0789 14.567 18.1667 14.779 18.1667 15C18.1667 15.221 18.0789 15.433 17.9226 15.5893C17.7663 15.7455 17.5543 15.8333 17.3333 15.8333H10.6667ZM17.3333 22.9885V18.3333H21.9896L17.3333 22.9885Z" fill="white"/>
</g>
<defs>
<clipPath id="clip0_1_1615">
<rect width="30" height="30" fill="white"/>
</clipPath>
</defs>
</svg>
