<svg width="30" height="30" viewBox="0 0 30 30" fill="none" xmlns="http://www.w3.org/2000/svg">
<g clip-path="url(#clip0_1_1633)">
<path fill-rule="evenodd" clip-rule="evenodd" d="M14.6386 5.25C14.4469 5.25 14.263 5.32616 14.1275 5.46173C13.9919 5.5973 13.9157 5.78117 13.9157 5.97289V16.5493L12.2964 14.6592C12.2347 14.587 12.1593 14.5277 12.0746 14.4847C11.9899 14.4417 11.8976 14.4158 11.8029 14.4084C11.7082 14.4011 11.613 14.4125 11.5227 14.4419C11.4324 14.4714 11.3488 14.5184 11.2767 14.5801C11.2045 14.6419 11.1453 14.7173 11.1022 14.8019C11.0592 14.8866 11.0333 14.9789 11.026 15.0736C11.0186 15.1683 11.03 15.2635 11.0595 15.3538C11.0889 15.4441 11.1359 15.5277 11.1976 15.5999L14.0892 18.9734C14.1571 19.0527 14.2413 19.1164 14.3362 19.1601C14.431 19.2038 14.5342 19.2264 14.6386 19.2264C14.743 19.2264 14.8462 19.2038 14.9411 19.1601C15.0359 19.1164 15.1201 19.0527 15.188 18.9734L18.0796 15.5999C18.1413 15.5277 18.1883 15.4441 18.2178 15.3538C18.2472 15.2635 18.2586 15.1683 18.2513 15.0736C18.2439 14.9789 18.218 14.8866 18.175 14.8019C18.132 14.7173 18.0727 14.6419 18.0005 14.5801C17.9284 14.5184 17.8448 14.4714 17.7545 14.4419C17.6642 14.4125 17.569 14.4011 17.4743 14.4084C17.3796 14.4158 17.2873 14.4417 17.2026 14.4847C17.1179 14.5277 17.0425 14.587 16.9808 14.6592L15.3615 16.5483V5.97289C15.3615 5.78117 15.2853 5.5973 15.1498 5.46173C15.0142 5.32616 14.8303 5.25 14.6386 5.25Z" fill="white"/>
<path d="M16.8072 12.7199V13.0842C17.2577 12.9241 17.7485 12.9174 18.2032 13.0651C18.6578 13.2129 19.0509 13.5068 19.3212 13.9012C19.5915 14.2955 19.7239 14.7681 19.6977 15.2455C19.6715 15.7229 19.4882 16.1782 19.1764 16.5406L16.2848 19.9141C16.0812 20.1515 15.8287 20.3421 15.5445 20.4727C15.2604 20.6034 14.9513 20.671 14.6386 20.671C14.3258 20.671 14.0167 20.6034 13.7326 20.4727C13.4484 20.3421 13.1959 20.1515 12.9923 19.9141L10.1007 16.5406C9.78977 16.178 9.60723 15.7229 9.58145 15.2459C9.55568 14.7689 9.6881 14.2967 9.95817 13.9027C10.2282 13.5087 10.6208 13.2149 11.075 13.0669C11.5292 12.9189 12.0195 12.925 12.4699 13.0842V12.7199H10.7831C8.05735 12.7199 6.69349 12.7199 5.84723 13.5671C5 14.4134 5 15.7772 5 18.503V19.4669C5 22.1927 5 23.5565 5.84723 24.4028C6.69349 25.25 8.05735 25.25 10.7831 25.25H18.494C21.2198 25.25 22.5836 25.25 23.4299 24.4028C24.2771 23.5565 24.2771 22.1927 24.2771 19.4669V18.503C24.2771 15.7772 24.2771 14.4134 23.4299 13.5671C22.5836 12.7199 21.2198 12.7199 18.494 12.7199H16.8072Z" fill="white"/>
</g>
<defs>
<clipPath id="clip0_1_1633">
<rect width="30" height="30" fill="white"/>
</clipPath>
</defs>
</svg>
