<svg width="37" height="32" viewBox="0 0 37 32" fill="none" xmlns="http://www.w3.org/2000/svg">
<path d="M31.3887 8.29096L24.0009 15.6795L16.6131 8.29096C16.4355 8.12834 16.2019 8.04055 15.9611 8.04589C15.7203 8.05123 15.4908 8.14927 15.3205 8.3196C15.1502 8.48993 15.0522 8.71941 15.0468 8.96023C15.0415 9.20105 15.1293 9.43465 15.2919 9.61235L22.6759 17.0009L15.29 24.3876C15.1998 24.4736 15.1276 24.5768 15.0779 24.6911C15.0281 24.8054 15.0016 24.9285 15.0001 25.0531C14.9985 25.1778 15.0219 25.3015 15.0689 25.417C15.1158 25.5324 15.1854 25.6374 15.2734 25.7256C15.3615 25.8138 15.4663 25.8835 15.5817 25.9306C15.6971 25.9777 15.8208 26.0013 15.9454 25.9999C16.0701 25.9986 16.1932 25.9723 16.3075 25.9227C16.4219 25.873 16.5251 25.801 16.6113 25.7109L24.0009 18.3242L31.3887 25.7128C31.5664 25.8754 31.8 25.9632 32.0408 25.9579C32.2816 25.9525 32.511 25.8545 32.6813 25.6841C32.8517 25.5138 32.9497 25.2843 32.955 25.0435C32.9604 24.8027 32.8726 24.5691 32.71 24.3914L25.3222 17.0028L32.71 9.61235C32.8002 9.52635 32.8724 9.42318 32.9221 9.30889C32.9719 9.19461 32.9984 9.07152 32.9999 8.94687C33.0015 8.82222 32.9781 8.69851 32.9311 8.58303C32.8842 8.46755 32.8146 8.36262 32.7266 8.27441C32.6385 8.1862 32.5337 8.11648 32.4183 8.06937C32.3029 8.02226 32.1792 7.99869 32.0546 8.00006C31.9299 8.00142 31.8068 8.0277 31.6925 8.07733C31.5781 8.12697 31.4749 8.19896 31.3887 8.28908V8.29096Z" fill="white"/>
</svg>
