<svg width="26" height="26" viewBox="0 0 26 26" fill="none" xmlns="http://www.w3.org/2000/svg">
<g clip-path="url(#clip0_1_1538)">
<path d="M7.66829 25.5133C7.15567 25.1723 6.70135 24.7509 6.32279 24.2653C5.90637 23.7642 5.52054 23.2383 5.16741 22.6907C4.33873 21.4767 3.68885 20.1498 3.23772 18.7509C2.69579 17.1259 2.43335 15.5683 2.43335 14.0449C2.43335 12.3435 2.80141 10.8583 3.52129 9.61027C4.05492 8.63482 4.8395 7.81966 5.79385 7.24914C6.71872 6.67468 7.78142 6.36031 8.86997 6.33914C9.25104 6.33914 9.66135 6.39439 10.0968 6.50002C10.4097 6.58858 10.7907 6.72833 11.2563 6.90221C11.8486 7.13052 12.1744 7.27027 12.2849 7.30439C12.6318 7.43114 12.9235 7.48639 13.1527 7.48639C13.3265 7.48639 13.5719 7.43114 13.8506 7.34664C14.0074 7.29139 14.3032 7.19389 14.7265 7.01271C15.1457 6.85996 15.4756 6.72914 15.738 6.63164C16.1402 6.51302 16.5294 6.40333 16.8763 6.34808C17.2876 6.28324 17.705 6.26606 18.1203 6.29689C18.8398 6.34393 19.5486 6.49641 20.2238 6.74946C21.328 7.19389 22.221 7.88777 22.8856 8.87414C22.6047 9.04728 22.341 9.24699 22.0983 9.47052C21.5698 9.93899 21.1197 10.489 20.765 11.0996C20.3013 11.9341 20.0609 12.8741 20.067 13.8288C20.0841 15.0012 20.3847 16.0339 20.977 16.9268C21.4125 17.5886 21.9784 18.1546 22.6402 18.59C22.979 18.8183 23.2707 18.9751 23.5502 19.0808C23.4194 19.487 23.2797 19.8803 23.1147 20.2703C22.7406 21.1448 22.2873 21.9833 21.7603 22.7752C21.2907 23.4569 20.9226 23.9647 20.6431 24.3027C20.2076 24.8186 19.7883 25.2127 19.365 25.4873C18.8995 25.7961 18.3494 25.961 17.7904 25.961C17.4118 25.9756 17.0333 25.9298 16.6692 25.8253C16.3563 25.7197 16.0468 25.6051 15.7421 25.4743C15.4253 25.3288 15.0987 25.2058 14.7647 25.1063C13.9389 24.8942 13.0731 24.8928 12.2467 25.1022C11.9079 25.1997 11.5821 25.3135 11.2603 25.4532C10.8078 25.6433 10.5072 25.7709 10.3333 25.8253C9.98635 25.9269 9.62641 25.9903 9.26241 26.0114C8.69935 26.0114 8.17447 25.8505 7.65447 25.5247L7.66829 25.5133ZM15.0945 5.51364C14.3584 5.88171 13.6556 6.03852 12.9577 5.98733C12.848 5.28452 12.9577 4.56546 13.2493 3.77814C13.4977 3.11114 13.8646 2.49454 14.3324 1.95814C14.8264 1.39347 15.4259 0.930637 16.0972 0.595582C16.8122 0.227519 17.4938 0.0284565 18.1455 -0.000793457C18.23 0.735332 18.1455 1.45927 17.8749 2.24171C17.6245 2.93337 17.2583 3.5774 16.7918 4.14621C16.3158 4.71165 15.7315 5.17628 15.0734 5.51283L15.0945 5.51364Z" fill="black"/>
</g>
<defs>
<clipPath id="clip0_1_1538">
<rect width="26" height="26" fill="white"/>
</clipPath>
</defs>
</svg>
