<svg width="50" height="50" viewBox="0 0 50 50" fill="none" xmlns="http://www.w3.org/2000/svg">
<rect width="50" height="50" rx="25" fill="#FFE7DB"/>
<mask id="mask0_1_1232" style="mask-type:luminance" maskUnits="userSpaceOnUse" x="13" y="13" width="24" height="22">
<path d="M16.9774 15.9855C17.0114 15.7134 17.1437 15.463 17.3493 15.2815C17.5549 15.1001 17.8197 14.9999 18.094 15H31.8572C32.1315 14.9999 32.3963 15.1001 32.6019 15.2815C32.8076 15.463 32.9398 15.7134 32.9738 15.9855L34.9426 31.7355C34.9623 31.8938 34.9482 32.0545 34.9012 32.2069C34.8541 32.3594 34.7751 32.5 34.6695 32.6196C34.5639 32.7392 34.4341 32.835 34.2887 32.9006C34.1432 32.9661 33.9855 33 33.826 33H16.1252C15.9657 33 15.808 32.9661 15.6626 32.9006C15.5171 32.835 15.3873 32.7392 15.2817 32.6196C15.1761 32.5 15.0972 32.3594 15.0501 32.2069C15.003 32.0545 14.9889 31.8938 15.0087 31.7355L16.9774 15.9855Z" fill="white" stroke="white" stroke-width="4" stroke-linejoin="round"/>
<path d="M19.9131 20.625C19.9131 20.625 21.0381 22.875 24.9756 22.875C28.9131 22.875 30.0381 20.625 30.0381 20.625" stroke="black" stroke-width="4" stroke-linecap="round" stroke-linejoin="round"/>
</mask>
<g mask="url(#mask0_1_1232)">
<path d="M11.4756 10.5H38.4756V37.5H11.4756V10.5Z" fill="#FF6F28"/>
</g>
</svg>
