<svg width="35" height="36" viewBox="0 0 35 36" fill="none" xmlns="http://www.w3.org/2000/svg">
<path fill-rule="evenodd" clip-rule="evenodd" d="M20.9635 21.646L15.4948 18.0001L20.9635 14.3543C21.0353 14.3064 21.097 14.2449 21.145 14.1731C21.1931 14.1014 21.2265 14.0209 21.2434 13.9363C21.2604 13.8517 21.2604 13.7645 21.2437 13.6799C21.2269 13.5952 21.1937 13.5146 21.1458 13.4428C21.0979 13.371 21.0364 13.3093 20.9647 13.2613C20.8929 13.2133 20.8125 13.1798 20.7278 13.1629C20.6432 13.146 20.5561 13.1459 20.4714 13.1626C20.3867 13.1794 20.3062 13.2127 20.2343 13.2605L14.035 17.3935C13.9351 17.46 13.8532 17.5503 13.7966 17.6561C13.74 17.7619 13.7103 17.8801 13.7103 18.0001C13.7103 18.1201 13.74 18.2383 13.7966 18.3442C13.8532 18.45 13.9351 18.5402 14.035 18.6068L20.2343 22.7397C20.3062 22.7876 20.3867 22.8208 20.4714 22.8376C20.5561 22.8543 20.6432 22.8543 20.7278 22.8373C20.8125 22.8204 20.8929 22.787 20.9647 22.7389C21.0364 22.6909 21.0979 22.6292 21.1458 22.5574C21.1937 22.4856 21.2269 22.405 21.2437 22.3204C21.2604 22.2357 21.2604 22.1486 21.2434 22.0639C21.2265 21.9793 21.1931 21.8988 21.145 21.8271C21.097 21.7554 21.0353 21.6938 20.9635 21.646V21.646Z" fill="#F77E23"/>
<rect x="0.291667" y="0.791667" width="34.4167" height="34.4167" rx="17.2083" stroke="#F77E23" stroke-width="0.583333"/>
</svg>
