<svg width="35" height="36" viewBox="0 0 35 36" fill="none" xmlns="http://www.w3.org/2000/svg">
<path fill-rule="evenodd" clip-rule="evenodd" d="M14.0365 21.646L19.5052 18.0001L14.0365 14.3543C13.9647 14.3064 13.903 14.2449 13.855 14.1731C13.8069 14.1014 13.7735 14.0209 13.7566 13.9363C13.7396 13.8517 13.7396 13.7645 13.7563 13.6799C13.7731 13.5952 13.8063 13.5146 13.8542 13.4428C13.9021 13.371 13.9636 13.3093 14.0353 13.2613C14.1071 13.2133 14.1875 13.1798 14.2722 13.1629C14.3568 13.146 14.4439 13.1459 14.5286 13.1626C14.6133 13.1794 14.6938 13.2127 14.7657 13.2605L20.965 17.3935C21.0649 17.46 21.1468 17.5503 21.2034 17.6561C21.26 17.7619 21.2897 17.8801 21.2897 18.0001C21.2897 18.1201 21.26 18.2383 21.2034 18.3442C21.1468 18.45 21.0649 18.5402 20.965 18.6068L14.7657 22.7397C14.6938 22.7876 14.6133 22.8208 14.5286 22.8376C14.4439 22.8543 14.3568 22.8543 14.2722 22.8373C14.1875 22.8204 14.1071 22.787 14.0353 22.7389C13.9636 22.6909 13.9021 22.6292 13.8542 22.5574C13.8063 22.4856 13.7731 22.405 13.7563 22.3204C13.7396 22.2357 13.7396 22.1486 13.7566 22.0639C13.7735 21.9793 13.8069 21.8988 13.855 21.8271C13.903 21.7554 13.9647 21.6938 14.0365 21.646V21.646Z" fill="#F77E23"/>
<rect x="-0.291667" y="0.291667" width="34.4167" height="34.4167" rx="17.2083" transform="matrix(-1 0 0 1 34.4167 0.5)" stroke="#F77E23" stroke-width="0.583333"/>
</svg>
