<svg width="30" height="30" viewBox="0 0 30 30" fill="none" xmlns="http://www.w3.org/2000/svg">
<g clip-path="url(#clip0_1_1624)">
<path d="M15.6666 11.6667H13.6666V9.66666H15.6666M15.6666 19.6667H13.6666V13.6667H15.6666M14.6666 4.66666C13.3534 4.66666 12.053 4.92531 10.8398 5.42786C9.62654 5.93041 8.52414 6.667 7.59556 7.59559C5.72019 9.47095 4.66663 12.0145 4.66663 14.6667C4.66663 17.3188 5.72019 19.8624 7.59556 21.7377C8.52414 22.6663 9.62654 23.4029 10.8398 23.9055C12.053 24.408 13.3534 24.6667 14.6666 24.6667C17.3188 24.6667 19.8623 23.6131 21.7377 21.7377C23.6131 19.8624 24.6666 17.3188 24.6666 14.6667C24.6666 13.3534 24.408 12.0531 23.9054 10.8398C23.4029 9.62657 22.6663 8.52417 21.7377 7.59559C20.8091 6.667 19.7067 5.93041 18.4935 5.42786C17.2802 4.92531 15.9798 4.66666 14.6666 4.66666Z" fill="white"/>
</g>
<defs>
<clipPath id="clip0_1_1624">
<rect width="30" height="30" fill="white"/>
</clipPath>
</defs>
</svg>
