<svg width="22" height="22" viewBox="0 0 22 22" fill="none" xmlns="http://www.w3.org/2000/svg">
<path d="M3.32773 12.8236C4.10408 9.09555 7.34949 6.44663 11.0002 6.44663C14.6497 6.44663 17.8951 9.09555 18.6726 12.8236C18.7034 12.9716 18.7917 13.1012 18.9181 13.184C19.0444 13.2669 19.1985 13.2961 19.3465 13.2653C19.4944 13.2345 19.6241 13.1462 19.7069 13.0198C19.7897 12.8934 19.8189 12.7393 19.7882 12.5914C18.9037 8.35108 15.2041 5.30829 11.0002 5.30829C6.79626 5.30829 3.09665 8.35108 2.21215 12.5914C2.18136 12.7393 2.21059 12.8934 2.29342 13.0198C2.37625 13.1462 2.5059 13.2345 2.65383 13.2653C2.80177 13.2961 2.95587 13.2669 3.08225 13.184C3.20864 13.1012 3.29694 12.9716 3.32773 12.8236ZM10.9888 8.72331C12.0454 8.72331 13.0588 9.14308 13.806 9.89026C14.5532 10.6374 14.973 11.6508 14.973 12.7075C14.973 13.7642 14.5532 14.7776 13.806 15.5248C13.0588 16.2719 12.0454 16.6917 10.9888 16.6917C9.9321 16.6917 8.9187 16.2719 8.17152 15.5248C7.42434 14.7776 7.00457 13.7642 7.00457 12.7075C7.00457 11.6508 7.42434 10.6374 8.17152 9.89026C8.9187 9.14308 9.9321 8.72331 10.9888 8.72331Z" fill="#6A707C"/>
</svg>
