<svg xmlns="http://www.w3.org/2000/svg" width="50" height="50" viewBox="0 0 50 50" fill="none">
<rect width="50" height="50" rx="25" fill="#FFE7DB"/>
<path d="M29.2062 30.4355H35.0378C34.5482 23.9732 31.7659 19.9594 28.1972 17.5852L29.822 14.0387C29.8711 13.9262 29.8916 13.8032 29.8815 13.6808C29.8714 13.5585 29.831 13.4405 29.7641 13.3376C29.6972 13.2346 29.6058 13.1499 29.498 13.091C29.3903 13.0321 29.2697 13.0008 29.1469 13H18.9749C18.8522 13.0008 18.7315 13.0321 18.6238 13.091C18.516 13.1499 18.4246 13.2346 18.3577 13.3376C18.2908 13.4405 18.2505 13.5585 18.2403 13.6808C18.2302 13.8032 18.2507 13.9262 18.2998 14.0387L19.1901 15.9677H26.6985L26.0307 17.4516H24.6582C25.0774 18.5788 25.3855 19.7442 25.5782 20.9313C25.703 21.6676 25.7823 22.411 25.8156 23.1571L24.6433 23.9806C24.6465 23.021 24.5671 22.0628 24.4059 21.1168C24.2009 19.8577 23.8472 18.6274 23.3524 17.4516H22.6104C21.9257 18.3168 21.3105 19.2347 20.7704 20.1968C20.335 21.0221 19.9653 21.8804 19.6649 22.7639L18.6485 22.0887C18.9452 21.2349 19.3099 20.4062 19.7391 19.6106C20.1728 18.8647 20.6484 18.1438 21.1636 17.4516H19.8653L19.9246 17.5777C15.9924 20.1968 13.0024 24.7968 13.0024 32.4758C12.9923 32.6372 13.0144 32.799 13.0673 32.9519C13.1201 33.1047 13.2028 33.2456 13.3104 33.3663C13.418 33.487 13.5485 33.5852 13.6943 33.6552C13.84 33.7253 13.9983 33.7657 14.1598 33.7742H20.0953C19.8404 33.5089 19.6644 33.178 19.5871 32.8183C19.5097 32.4587 19.534 32.0846 19.6572 31.738C19.7804 31.3915 19.9978 31.086 20.2848 30.856C20.5718 30.6259 20.9172 30.4803 21.2824 30.4355C21.1047 30.1341 21.01 29.7911 21.0078 29.4413C21.0078 28.91 21.2189 28.4005 21.5946 28.0248C21.9702 27.6491 22.4798 27.4381 23.0111 27.4381H27.4627C27.994 27.4381 28.5035 27.6491 28.8792 28.0248C29.2548 28.4005 29.4659 28.91 29.4659 29.4413C29.4697 29.7899 29.3801 30.1332 29.2062 30.4355Z" fill="#FF6F28"/>
<path d="M26.7653 32.2903C26.7653 32.0936 26.6871 31.9048 26.548 31.7657C26.4089 31.6266 26.2202 31.5484 26.0234 31.5484H21.5718C21.375 31.5484 21.1863 31.6266 21.0471 31.7657C20.908 31.9048 20.8298 32.0936 20.8298 32.2903C20.8298 32.4871 20.908 32.6758 21.0471 32.815C21.1863 32.9541 21.375 33.0323 21.5718 33.0323H26.0234C26.2202 33.0323 26.4089 32.9541 26.548 32.815C26.6871 32.6758 26.7653 32.4871 26.7653 32.2903Z" fill="#FF6F28"/>
<path d="M27.4627 28.5807H23.0111C22.8143 28.5807 22.6256 28.6589 22.4865 28.798C22.3473 28.9371 22.2692 29.1259 22.2692 29.3226C22.2692 29.5194 22.3473 29.7081 22.4865 29.8473C22.6256 29.9864 22.8143 30.0646 23.0111 30.0646H27.4627C27.6595 30.0646 27.8482 29.9864 27.9873 29.8473C28.1265 29.7081 28.2046 29.5194 28.2046 29.3226C28.2046 29.1259 28.1265 28.9371 27.9873 28.798C27.8482 28.6589 27.6595 28.5807 27.4627 28.5807Z" fill="#FF6F28"/>
<path d="M27.0621 34.5161H22.6105C22.4137 34.5161 22.225 34.5943 22.0858 34.7334C21.9467 34.8726 21.8685 35.0613 21.8685 35.258C21.8685 35.4548 21.9467 35.6435 22.0858 35.7827C22.225 35.9218 22.4137 36 22.6105 36H27.0621C27.2589 36 27.4476 35.9218 27.5867 35.7827C27.7258 35.6435 27.804 35.4548 27.804 35.258C27.804 35.0613 27.7258 34.8726 27.5867 34.7334C27.4476 34.5943 27.2589 34.5161 27.0621 34.5161Z" fill="#FF6F28"/>
<path d="M35.0008 34.5161H29.8072C29.6105 34.5161 29.4218 34.5943 29.2826 34.7334C29.1435 34.8726 29.0653 35.0613 29.0653 35.258C29.0653 35.4548 29.1435 35.6435 29.2826 35.7827C29.4218 35.9218 29.6105 36 29.8072 36H35.0008C35.1976 36 35.3863 35.9218 35.5254 35.7827C35.6646 35.6435 35.7427 35.4548 35.7427 35.258C35.7427 35.0613 35.6646 34.8726 35.5254 34.7334C35.3863 34.5943 35.1976 34.5161 35.0008 34.5161Z" fill="#FF6F28"/>
<path d="M35.7426 31.5484H30.5491C30.3523 31.5484 30.1636 31.6266 30.0244 31.7657C29.8853 31.9048 29.8071 32.0936 29.8071 32.2903C29.8071 32.4871 29.8853 32.6758 30.0244 32.815C30.1636 32.9541 30.3523 33.0323 30.5491 33.0323H35.7426C35.9394 33.0323 36.1281 32.9541 36.2672 32.815C36.4064 32.6758 36.4845 32.4871 36.4845 32.2903C36.4845 32.0936 36.4064 31.9048 36.2672 31.7657C36.1281 31.6266 35.9394 31.5484 35.7426 31.5484Z" fill="#FF6F28"/>
</svg>