<svg width="41" height="41" viewBox="0 0 41 41" fill="none" xmlns="http://www.w3.org/2000/svg">
<rect x="0.285767" y="0.178558" width="40.1786" height="40.1786" rx="20.0893" fill="#FFE7DB"/>
<path d="M17.3617 11.2277C16.0297 11.2277 14.7522 11.7568 13.8104 12.6987C12.8685 13.6406 12.3394 14.918 12.3394 16.25C12.3394 17.582 12.8685 18.8595 13.8104 19.8013C14.7522 20.7432 16.0297 21.2723 17.3617 21.2723C18.6937 21.2723 19.9711 20.7432 20.913 19.8013C21.8549 18.8595 22.384 17.582 22.384 16.25C22.384 14.918 21.8549 13.6406 20.913 12.6987C19.9711 11.7568 18.6937 11.2277 17.3617 11.2277ZM14.3483 16.25C14.3483 15.4508 14.6658 14.6843 15.2309 14.1192C15.796 13.5541 16.5625 13.2366 17.3617 13.2366C18.1609 13.2366 18.9274 13.5541 19.4925 14.1192C20.0576 14.6843 20.3751 15.4508 20.3751 16.25C20.3751 17.0492 20.0576 17.8157 19.4925 18.3808C18.9274 18.9459 18.1609 19.2634 17.3617 19.2634C16.5625 19.2634 15.796 18.9459 15.2309 18.3808C14.6658 17.8157 14.3483 17.0492 14.3483 16.25ZM25.305 16.469C25.0225 16.3251 24.71 16.25 24.3929 16.25V14.2411C25.0273 14.2411 25.6526 14.3914 26.2177 14.6795C26.7828 14.9676 27.2717 15.3855 27.6443 15.8989C28.0169 16.4122 28.2627 17.0066 28.3615 17.6332C28.4603 18.2598 28.4093 18.9008 28.2128 19.504C28.0162 20.1071 27.6796 20.6551 27.2306 21.1031C26.7815 21.5512 26.2328 21.8865 25.6292 22.0818C25.0257 22.277 24.3845 22.3266 23.7581 22.2264C23.1317 22.1262 22.538 21.8791 22.0254 21.5054L23.2087 19.8822C23.4327 20.0452 23.688 20.1601 23.9586 20.2197C24.2292 20.2794 24.5092 20.2824 24.781 20.2286C25.0527 20.1747 25.3105 20.0653 25.5379 19.9071C25.7654 19.7489 25.9577 19.5453 26.1027 19.3093C26.2477 19.0732 26.3423 18.8096 26.3805 18.5352C26.4188 18.2608 26.3998 17.9814 26.3249 17.7147C26.25 17.4479 26.1207 17.1996 25.9452 16.9852C25.7697 16.7708 25.5517 16.5951 25.305 16.469ZM28.4088 29.3081C28.4085 28.2431 27.9853 27.2218 27.2323 26.4687C26.4792 25.7157 25.4579 25.2925 24.3929 25.2922V23.2813C25.9913 23.2815 27.524 23.9166 28.6542 25.0468C29.7844 26.1769 30.4195 27.7097 30.4197 29.3081H28.4088ZM24.3929 29.3081H22.384C22.384 27.976 21.8549 26.6986 20.913 25.7567C19.9711 24.8149 18.6937 24.2857 17.3617 24.2857C16.0297 24.2857 14.7522 24.8149 13.8104 25.7567C12.8685 26.6986 12.3394 27.976 12.3394 29.3081H10.3304C10.3304 27.4432 11.0712 25.6548 12.3898 24.3362C13.7085 23.0176 15.4969 22.2768 17.3617 22.2768C19.2265 22.2768 21.0149 23.0176 22.3335 24.3362C23.6522 25.6548 24.3929 27.4432 24.3929 29.3081Z" fill="#F77E23"/>
</svg>
