<svg width="51" height="50" viewBox="0 0 51 50" fill="none" xmlns="http://www.w3.org/2000/svg">
<rect x="0.5" width="50" height="50" rx="25" fill="#FFE7DB"/>
<path d="M25 36C18.6486 36 13.5 30.8514 13.5 24.5C13.5 18.1486 18.6486 13 25 13C31.3514 13 36.5 18.1486 36.5 24.5C36.5 30.8514 31.3514 36 25 36ZM23.85 29.1V31.4H26.15V29.1H27.3C27.8339 29.1 28.3573 28.9513 28.8115 28.6706C29.2657 28.3899 29.6327 27.9883 29.8715 27.5107C30.1103 27.0332 30.2113 26.4986 30.1634 25.9668C30.1154 25.435 29.9204 24.9271 29.6 24.5C29.9204 24.0729 30.1154 23.565 30.1634 23.0332C30.2113 22.5014 30.1103 21.9668 29.8715 21.4893C29.6327 21.0117 29.2657 20.6101 28.8115 20.3294C28.3573 20.0487 27.8339 19.9 27.3 19.9H26.15V17.6H23.85V19.9H20.4V29.1H23.85ZM22.7 25.65H27.3C27.4525 25.65 27.5988 25.7106 27.7066 25.8184C27.8144 25.9262 27.875 26.0725 27.875 26.225C27.875 26.3775 27.8144 26.5238 27.7066 26.6316C27.5988 26.7394 27.4525 26.8 27.3 26.8H22.7V25.65ZM22.7 22.2H27.3C27.4525 22.2 27.5988 22.2606 27.7066 22.3684C27.8144 22.4762 27.875 22.6225 27.875 22.775C27.875 22.9275 27.8144 23.0738 27.7066 23.1816C27.5988 23.2894 27.4525 23.35 27.3 23.35H22.7V22.2Z" fill="#FF6F28"/>
</svg>
