<svg width="105" height="56" viewBox="0 0 105 56" fill="none" xmlns="http://www.w3.org/2000/svg">
<rect x="0.5" y="0.5" width="104" height="55" rx="7.5" fill="white" stroke="#E8ECF4"/>
<path d="M43.4202 30.4656L42.5975 33.537L39.5903 33.6006C38.6916 31.9338 38.1819 30.0266 38.1819 28C38.1819 26.0403 38.6585 24.1922 39.5033 22.5649H39.504L42.1811 23.0558L43.3539 25.7169C43.1085 26.4325 42.9747 27.2007 42.9747 28C42.9748 28.8675 43.1319 29.6987 43.4202 30.4656Z" fill="#FBBB00"/>
<path d="M61.6119 25.7922C61.7476 26.5071 61.8184 27.2454 61.8184 28C61.8184 28.8461 61.7294 29.6714 61.5599 30.4675C60.9846 33.1766 59.4814 35.5422 57.3989 37.2162L57.3983 37.2156L54.0262 37.0435L53.549 34.0643C54.9308 33.2539 56.0107 31.9857 56.5795 30.4675H50.26V25.7922H56.6717H61.6119Z" fill="#518EF8"/>
<path d="M57.3981 37.2156L57.3988 37.2163C55.3735 38.8442 52.8007 39.8182 50.0001 39.8182C45.4994 39.8182 41.5865 37.3026 39.5903 33.6007L43.4202 30.4656C44.4182 33.1293 46.9877 35.0254 50.0001 35.0254C51.2949 35.0254 52.5079 34.6754 53.5488 34.0643L57.3981 37.2156Z" fill="#28B446"/>
<path d="M57.5437 18.9026L53.7151 22.037C52.6379 21.3636 51.3644 20.9747 50.0002 20.9747C46.9197 20.9747 44.3021 22.9578 43.3541 25.7169L39.5041 22.5649H39.5034C41.4703 18.7727 45.4326 16.1818 50.0002 16.1818C52.8677 16.1818 55.4969 17.2033 57.5437 18.9026Z" fill="#F14336"/>
</svg>
