<svg width="194" height="37" viewBox="0 0 194 37" fill="none" xmlns="http://www.w3.org/2000/svg">
<g clip-path="url(#clip0_102_3757)">
<path d="M17.9182 35.8365C27.8142 35.8365 35.8365 27.8142 35.8365 17.9182C35.8365 8.02227 27.8142 0 17.9182 0C8.02227 0 0 8.02227 0 17.9182C0 27.8142 8.02227 35.8365 17.9182 35.8365Z" fill="#F77E23"/>
<path fill-rule="evenodd" clip-rule="evenodd" d="M26.4856 21.7072C25.0309 24.9912 21.743 27.2822 17.92 27.2822C14.4303 27.2822 11.3864 25.3731 9.77579 22.5425H13.8739V23.0049L15.9548 21.8489L13.8739 20.5772V21.2708H9.17426C8.77503 20.23 8.55627 19.0998 8.55627 17.9184C8.55627 12.747 12.7486 8.55469 17.92 8.55469C21.362 8.55469 24.3702 10.4118 25.9973 13.1788H22.4284V12.4852L20.3477 13.7567L22.4284 14.9127V14.4504H26.6205C26.6855 14.6134 26.7462 14.7788 26.8022 14.9462C27.9773 16.1844 30.2157 16.3639 31.8869 15.6309C32.6985 14.2992 34.1646 13.4099 35.8382 13.4099C38.3921 13.4099 40.4624 15.4802 40.4624 18.0341C40.4624 20.5878 38.3921 22.6581 35.8382 22.6581C34.2842 22.6581 32.9092 21.8914 32.0709 20.7158C29.7114 20.1148 28.2086 20.1148 26.4856 21.7072Z" fill="white"/>
<path d="M50.8206 25.4458C49.3682 25.4458 48.0515 25.1337 46.8707 24.5094C45.7034 23.8714 44.7803 22.9958 44.1016 21.8829C43.4366 20.7562 43.104 19.4871 43.104 18.0754C43.104 16.6639 43.4366 15.4015 44.1016 14.2885C44.7803 13.1618 45.7034 12.2864 46.8707 11.662C48.0515 11.0241 49.375 10.7051 50.841 10.7051C52.0761 10.7051 53.1891 10.9223 54.18 11.3566C55.1844 11.791 56.026 12.4153 56.7047 13.2298L54.5872 15.1844C53.6235 14.0713 52.429 13.5148 51.0038 13.5148C50.1215 13.5148 49.3343 13.7117 48.642 14.1052C47.9498 14.4853 47.4069 15.0215 47.0132 15.7137C46.6332 16.406 46.4431 17.1932 46.4431 18.0754C46.4431 18.9578 46.6332 19.745 47.0132 20.4373C47.4069 21.1295 47.9498 21.6725 48.642 22.0661C49.3343 22.4461 50.1215 22.6362 51.0038 22.6362C52.429 22.6362 53.6235 22.0729 54.5872 20.9463L56.7047 22.9009C56.026 23.7288 55.1844 24.36 54.18 24.7944C53.1755 25.2287 52.0558 25.4458 50.8206 25.4458Z" fill="#F77E23"/>
<path d="M63.3389 25.3645C62.1852 25.3645 61.1468 25.127 60.2238 24.6519C59.3143 24.1633 58.6018 23.4913 58.0859 22.6363C57.5701 21.7811 57.3123 20.8106 57.3123 19.7247C57.3123 18.6389 57.5701 17.6684 58.0859 16.8132C58.6018 15.9581 59.3143 15.293 60.2238 14.8179C61.1468 14.3293 62.1852 14.085 63.3389 14.085C64.4927 14.085 65.5243 14.3293 66.4336 14.8179C67.3431 15.293 68.0557 15.9581 68.5715 16.8132C69.0873 17.6684 69.3452 18.6389 69.3452 19.7247C69.3452 20.8106 69.0873 21.7811 68.5715 22.6363C68.0557 23.4913 67.3431 24.1633 66.4336 24.6519C65.5243 25.127 64.4927 25.3645 63.3389 25.3645ZM63.3389 22.7584C64.1533 22.7584 64.8184 22.4869 65.3342 21.944C65.8636 21.3875 66.1282 20.6478 66.1282 19.7247C66.1282 18.8017 65.8636 18.0688 65.3342 17.5258C64.8184 16.9694 64.1533 16.6911 63.3389 16.6911C62.5244 16.6911 61.8527 16.9694 61.3233 17.5258C60.7938 18.0688 60.5292 18.8017 60.5292 19.7247C60.5292 20.6478 60.7938 21.3875 61.3233 21.944C61.8527 22.4869 62.5244 22.7584 63.3389 22.7584Z" fill="#F77E23"/>
<path d="M77.9224 14.085C79.2798 14.085 80.3724 14.4922 81.2005 15.3066C82.042 16.1209 82.4628 17.329 82.4628 18.9307V25.2016H79.2866V19.4194C79.2866 18.5506 79.0966 17.906 78.7166 17.4851C78.3365 17.0508 77.7868 16.8336 77.0674 16.8336C76.2666 16.8336 75.6286 17.0847 75.1535 17.5869C74.6784 18.0755 74.4408 18.8085 74.4408 19.7858V25.2016H71.2646V14.2479H74.2984V15.5306C74.7191 15.069 75.2417 14.7162 75.8661 14.4719C76.4904 14.214 77.1759 14.085 77.9224 14.085Z" fill="#F77E23"/>
<path d="M92.2032 24.6725C91.891 24.9032 91.5042 25.0797 91.0427 25.2018C90.5947 25.3105 90.1197 25.3647 89.6174 25.3647C88.3144 25.3647 87.3032 25.0322 86.5838 24.3671C85.878 23.702 85.525 22.7247 85.525 21.4352V16.9356H83.8351V14.4924H85.525V11.8252H88.7012V14.4924H91.4295V16.9356H88.7012V21.3945C88.7012 21.856 88.8166 22.2157 89.0474 22.4736C89.2917 22.7179 89.631 22.8401 90.0654 22.8401C90.5676 22.8401 90.9952 22.7043 91.3481 22.4329L92.2032 24.6725Z" fill="#F77E23"/>
<path d="M104.174 19.7654C104.174 19.8061 104.154 20.0913 104.113 20.6206H95.8267C95.976 21.2992 96.3289 21.8355 96.8854 22.229C97.442 22.6227 98.1341 22.8196 98.9622 22.8196C99.5322 22.8196 100.034 22.738 100.469 22.5752C100.917 22.3987 101.331 22.1273 101.711 21.7607L103.401 23.5932C102.369 24.7741 100.863 25.3645 98.8808 25.3645C97.6456 25.3645 96.5529 25.127 95.6027 24.6519C94.6525 24.1633 93.9196 23.4913 93.4038 22.6363C92.888 21.7811 92.6301 20.8106 92.6301 19.7247C92.6301 18.6525 92.8812 17.6888 93.3834 16.8336C93.8992 15.9649 94.5983 15.293 95.4806 14.8179C96.3764 14.3293 97.374 14.085 98.4735 14.085C99.5458 14.085 100.516 14.3157 101.385 14.7772C102.254 15.2387 102.932 15.9038 103.421 16.7725C103.923 17.6276 104.174 18.6254 104.174 19.7654ZM98.4939 16.4875C97.7745 16.4875 97.1705 16.6911 96.6819 17.0982C96.1932 17.5055 95.8945 18.062 95.786 18.7678H101.181C101.073 18.0755 100.774 17.5258 100.286 17.1186C99.7969 16.6979 99.1997 16.4875 98.4939 16.4875Z" fill="#F77E23"/>
<path d="M112.743 14.085C114.1 14.085 115.193 14.4922 116.021 15.3066C116.863 16.1209 117.283 17.329 117.283 18.9307V25.2016H114.107V19.4194C114.107 18.5506 113.917 17.906 113.537 17.4851C113.157 17.0508 112.607 16.8336 111.888 16.8336C111.087 16.8336 110.449 17.0847 109.974 17.5869C109.499 18.0755 109.262 18.8085 109.262 19.7858V25.2016H106.085V14.2479H109.119V15.5306C109.54 15.069 110.062 14.7162 110.687 14.4719C111.311 14.214 111.997 14.085 112.743 14.085Z" fill="#F77E23"/>
<path d="M127.023 24.6725C126.711 24.9032 126.325 25.0797 125.863 25.2018C125.415 25.3105 124.94 25.3647 124.438 25.3647C123.135 25.3647 122.124 25.0322 121.404 24.3671C120.699 23.702 120.346 22.7247 120.346 21.4352V16.9356H118.656V14.4924H120.346V11.8252H123.522V14.4924H126.25V16.9356H123.522V21.3945C123.522 21.856 123.638 22.2157 123.869 22.4736C124.113 22.7179 124.452 22.8401 124.886 22.8401C125.388 22.8401 125.816 22.7043 126.169 22.4329L127.023 24.6725Z" fill="#F77E23"/>
<path d="M128.603 14.2475H131.779V25.2012H128.603V14.2475ZM130.192 12.7203C129.607 12.7203 129.132 12.5508 128.766 12.2114C128.4 11.8721 128.216 11.4513 128.216 10.9491C128.216 10.4468 128.4 10.0261 128.766 9.68673C129.132 9.3474 129.607 9.17773 130.192 9.17773C130.775 9.17773 131.25 9.34061 131.616 9.66638C131.983 9.99214 132.166 10.3993 132.166 10.888C132.166 11.4174 131.983 11.8585 131.616 12.2114C131.25 12.5508 130.775 12.7203 130.192 12.7203Z" fill="#F77E23"/>
<path d="M139.735 25.3645C138.582 25.3645 137.544 25.127 136.621 24.6519C135.711 24.1633 134.998 23.4913 134.483 22.6363C133.967 21.7811 133.709 20.8106 133.709 19.7247C133.709 18.6389 133.967 17.6684 134.483 16.8132C134.998 15.9581 135.711 15.293 136.621 14.8179C137.544 14.3293 138.582 14.085 139.735 14.085C140.89 14.085 141.921 14.3293 142.831 14.8179C143.74 15.293 144.453 15.9581 144.968 16.8132C145.484 17.6684 145.742 18.6389 145.742 19.7247C145.742 20.8106 145.484 21.7811 144.968 22.6363C144.453 23.4913 143.74 24.1633 142.831 24.6519C141.921 25.127 140.89 25.3645 139.735 25.3645ZM139.735 22.7584C140.551 22.7584 141.215 22.4869 141.731 21.944C142.26 21.3875 142.525 20.6478 142.525 19.7247C142.525 18.8017 142.26 18.0688 141.731 17.5258C141.215 16.9694 140.551 16.6911 139.735 16.6911C138.921 16.6911 138.249 16.9694 137.72 17.5258C137.191 18.0688 136.926 18.8017 136.926 19.7247C136.926 20.6478 137.191 21.3875 137.72 21.944C138.249 22.4869 138.921 22.7584 139.735 22.7584Z" fill="#F77E23"/>
<path d="M154.32 14.085C155.676 14.085 156.769 14.4922 157.598 15.3066C158.439 16.1209 158.859 17.329 158.859 18.9307V25.2016H155.684V19.4194C155.684 18.5506 155.494 17.906 155.114 17.4851C154.733 17.0508 154.184 16.8336 153.464 16.8336C152.663 16.8336 152.026 17.0847 151.551 17.5869C151.076 18.0755 150.838 18.8085 150.838 19.7858V25.2016H147.662V14.2479H150.695V15.5306C151.117 15.069 151.638 14.7162 152.262 14.4719C152.888 14.214 153.573 14.085 154.32 14.085Z" fill="#F77E23"/>
<path d="M165.954 14.085C167.65 14.085 168.953 14.4922 169.862 15.3066C170.772 16.1074 171.226 17.3222 171.226 18.9511V25.2016H168.254V23.8375C167.657 24.8555 166.544 25.3645 164.915 25.3645C164.074 25.3645 163.34 25.222 162.716 24.9369C162.106 24.6519 161.637 24.2582 161.311 23.756C160.986 23.2538 160.823 22.6838 160.823 22.0458C160.823 21.0278 161.203 20.227 161.963 19.6433C162.736 19.0596 163.924 18.7678 165.526 18.7678H168.05C168.05 18.0755 167.841 17.5462 167.419 17.1798C166.998 16.7997 166.367 16.6096 165.526 16.6096C164.942 16.6096 164.365 16.7047 163.795 16.8946C163.239 17.0711 162.763 17.3154 162.37 17.6276L161.23 15.4083C161.827 14.9876 162.54 14.6618 163.367 14.431C164.21 14.2004 165.071 14.085 165.954 14.085ZM165.709 23.2267C166.252 23.2267 166.734 23.1046 167.155 22.8603C167.576 22.6024 167.874 22.229 168.05 21.7404V20.6206H165.872C164.569 20.6206 163.917 21.0481 163.917 21.9033C163.917 22.3106 164.074 22.6363 164.386 22.8806C164.712 23.1114 165.152 23.2267 165.709 23.2267Z" fill="#F77E23"/>
<path d="M176.932 15.6935C177.311 15.164 177.821 14.7637 178.458 14.4922C179.11 14.2208 179.857 14.085 180.698 14.085V17.0168C180.345 16.9897 180.107 16.9761 179.985 16.9761C179.076 16.9761 178.363 17.234 177.848 17.7498C177.331 18.252 177.073 19.0121 177.073 20.0301V25.2016H173.898V14.2479H176.932V15.6935Z" fill="#F77E23"/>
<path d="M193.633 14.2471L188.685 25.8727C188.183 27.135 187.559 28.0241 186.813 28.5399C186.079 29.0557 185.19 29.3136 184.145 29.3136C183.576 29.3136 183.012 29.2254 182.456 29.0489C181.9 28.8724 181.444 28.6281 181.092 28.316L182.252 26.056C182.496 26.2732 182.774 26.4428 183.087 26.565C183.413 26.6871 183.731 26.7483 184.043 26.7483C184.478 26.7483 184.831 26.6396 185.102 26.4224C185.374 26.2188 185.618 25.8727 185.835 25.3841L185.876 25.2823L181.132 14.2471H184.411L187.484 21.6785L190.58 14.2471H193.633Z" fill="#F77E23"/>
</g>
<defs>
<clipPath id="clip0_102_3757">
<rect width="193.633" height="37" fill="white"/>
</clipPath>
</defs>
</svg>
