<svg width="30" height="30" viewBox="0 0 30 30" fill="none" xmlns="http://www.w3.org/2000/svg">
<g clip-path="url(#clip0_1_1597)">
<path d="M24.2875 16.225C24.3375 15.825 24.375 15.425 24.375 15C24.375 14.575 24.3375 14.175 24.2875 13.775L26.925 11.7125C27.1625 11.525 27.225 11.1875 27.075 10.9125L24.575 6.5875C24.4625 6.3875 24.25 6.275 24.025 6.275C23.95 6.275 23.875 6.2875 23.8125 6.3125L20.7 7.5625C20.05 7.0625 19.35 6.65 18.5875 6.3375L18.1125 3.025C18.075 2.725 17.8125 2.5 17.5 2.5L12.5 2.5C12.1875 2.5 11.925 2.725 11.8875 3.025L11.4125 6.3375C10.65 6.65 9.94998 7.075 9.29998 7.5625L6.18748 6.3125C6.11248 6.2875 6.03748 6.275 5.96248 6.275C5.74998 6.275 5.53748 6.3875 5.42498 6.5875L2.92498 10.9125C2.76248 11.1875 2.83748 11.525 3.07498 11.7125L5.71248 13.775C5.66248 14.175 5.62498 14.5875 5.62498 15C5.62498 15.4125 5.66248 15.825 5.71248 16.225L3.07498 18.2875C2.83748 18.475 2.77498 18.8125 2.92498 19.0875L5.42498 23.4125C5.53748 23.6125 5.74998 23.725 5.97498 23.725C6.04998 23.725 6.12498 23.7125 6.18748 23.6875L9.29998 22.4375C9.94998 22.9375 10.65 23.35 11.4125 23.6625L11.8875 26.975C11.925 27.275 12.1875 27.5 12.5 27.5L17.5 27.5C17.8125 27.5 18.075 27.275 18.1125 26.975L18.5875 23.6625C19.35 23.35 20.05 22.925 20.7 22.4375L23.8125 23.6875C23.8875 23.7125 23.9625 23.725 24.0375 23.725C24.25 23.725 24.4625 23.6125 24.575 23.4125L27.075 19.0875C27.225 18.8125 27.1625 18.475 26.925 18.2875L24.2875 16.225ZM21.8125 14.0875C21.8625 14.475 21.875 14.7375 21.875 15C21.875 15.2625 21.85 15.5375 21.8125 15.9125L21.6375 17.325L22.75 18.2L24.1 19.25L23.225 20.7625L21.6375 20.125L20.3375 19.6L19.2125 20.45C18.675 20.85 18.1625 21.15 17.65 21.3625L16.325 21.9L16.125 23.3125L15.875 25H14.125L13.8875 23.3125L13.6875 21.9L12.3625 21.3625C11.825 21.1375 11.325 20.85 10.825 20.475L9.68748 19.6L8.36248 20.1375L6.77498 20.775L5.89998 19.2625L7.24998 18.2125L8.36248 17.3375L8.18748 15.925C8.14998 15.5375 8.12498 15.25 8.12498 15C8.12498 14.75 8.14998 14.4625 8.18748 14.0875L8.36248 12.675L7.24998 11.8L5.89998 10.75L6.77498 9.2375L8.36248 9.875L9.66248 10.4L10.7875 9.55C11.325 9.15 11.8375 8.85 12.35 8.6375L13.675 8.1L13.875 6.6875L14.125 5H15.8625L16.1 6.6875L16.3 8.1L17.625 8.6375C18.1625 8.8625 18.6625 9.15 19.1625 9.525L20.3 10.4L21.625 9.8625L23.2125 9.225L24.0875 10.7375L22.75 11.8L21.6375 12.675L21.8125 14.0875ZM15 10C12.2375 10 9.99998 12.2375 9.99998 15C9.99998 17.7625 12.2375 20 15 20C17.7625 20 20 17.7625 20 15C20 12.2375 17.7625 10 15 10ZM15 17.5C13.625 17.5 12.5 16.375 12.5 15C12.5 13.625 13.625 12.5 15 12.5C16.375 12.5 17.5 13.625 17.5 15C17.5 16.375 16.375 17.5 15 17.5Z" fill="white"/>
</g>
<defs>
<clipPath id="clip0_1_1597">
<rect width="30" height="30" fill="white"/>
</clipPath>
</defs>
</svg>
