<svg width="376" height="44" viewBox="0 0 376 44" fill="none" xmlns="http://www.w3.org/2000/svg">
<path opacity="0.35" d="M336.805 20C336.805 18.8034 337.775 17.8334 338.972 17.8334H355.638C356.835 17.8334 357.805 18.8034 357.805 20V26C357.805 27.1967 356.835 28.1667 355.638 28.1667H338.972C337.775 28.1667 336.805 27.1967 336.805 26V20Z" stroke="black"/>
<path opacity="0.4" d="M359.305 21V25C360.11 24.6613 360.633 23.8732 360.633 23C360.633 22.1269 360.11 21.3388 359.305 21Z" fill="black"/>
<path d="M338.305 20.6667C338.305 19.9303 338.902 19.3334 339.638 19.3334H354.972C355.708 19.3334 356.305 19.9303 356.305 20.6667V25.3334C356.305 26.0698 355.708 26.6667 354.972 26.6667H339.638C338.902 26.6667 338.305 26.0698 338.305 25.3334V20.6667Z" fill="black"/>
<path fill-rule="evenodd" clip-rule="evenodd" d="M323.635 19.608C325.851 19.6081 327.982 20.4596 329.588 21.9863C329.709 22.1042 329.903 22.1027 330.022 21.983L331.178 20.8163C331.238 20.7556 331.272 20.6734 331.271 20.5878C331.271 20.5022 331.236 20.4204 331.175 20.3603C326.96 16.3208 320.31 16.3208 316.095 20.3603C316.034 20.4203 315.999 20.5021 315.999 20.5877C315.998 20.6733 316.032 20.7556 316.092 20.8163L317.248 21.983C317.367 22.1029 317.561 22.1044 317.682 21.9863C319.288 20.4595 321.419 19.608 323.635 19.608ZM323.635 23.4037C324.853 23.4036 326.027 23.8561 326.929 24.6733C327.051 24.7893 327.244 24.7868 327.363 24.6677L328.517 23.501C328.578 23.4398 328.612 23.3568 328.611 23.2705C328.61 23.1843 328.575 23.102 328.513 23.042C325.765 20.4856 321.509 20.4856 318.76 23.042C318.698 23.102 318.663 23.1843 318.662 23.2706C318.661 23.3569 318.695 23.4399 318.756 23.501L319.91 24.6677C320.029 24.7868 320.222 24.7893 320.344 24.6733C321.246 23.8567 322.419 23.4042 323.635 23.4037ZM325.948 25.9575C325.95 26.044 325.916 26.1274 325.854 26.188L323.857 28.2037C323.799 28.2629 323.719 28.2963 323.635 28.2963C323.552 28.2963 323.472 28.2629 323.414 28.2037L321.416 26.188C321.354 26.1274 321.32 26.0439 321.322 25.9574C321.324 25.8709 321.361 25.789 321.426 25.731C322.701 24.6521 324.569 24.6521 325.845 25.731C325.909 25.7891 325.947 25.871 325.948 25.9575Z" fill="black"/>
<path fill-rule="evenodd" clip-rule="evenodd" d="M309.972 17.6666H308.972C308.419 17.6666 307.972 18.1143 307.972 18.6666V27.3333C307.972 27.8856 308.419 28.3333 308.972 28.3333H309.972C310.524 28.3333 310.972 27.8856 310.972 27.3333V18.6666C310.972 18.1143 310.524 17.6666 309.972 17.6666ZM304.305 20H305.305C305.857 20 306.305 20.4477 306.305 21V27.3333C306.305 27.8856 305.857 28.3333 305.305 28.3333H304.305C303.753 28.3333 303.305 27.8856 303.305 27.3333V21C303.305 20.4477 303.753 20 304.305 20ZM300.638 22.3333H299.638C299.086 22.3333 298.638 22.781 298.638 23.3333V27.3333C298.638 27.8856 299.086 28.3333 299.638 28.3333H300.638C301.191 28.3333 301.638 27.8856 301.638 27.3333V23.3333C301.638 22.781 301.191 22.3333 300.638 22.3333ZM295.972 24.3333H294.972C294.419 24.3333 293.972 24.781 293.972 25.3333V27.3333C293.972 27.8856 294.419 28.3333 294.972 28.3333H295.972C296.524 28.3333 296.972 27.8856 296.972 27.3333V25.3333C296.972 24.781 296.524 24.3333 295.972 24.3333Z" fill="black"/>
<circle cx="301.305" cy="11.0001" r="3" fill="#FF9500"/>
</svg>
