<svg width="21" height="21" viewBox="0 0 21 21" fill="none" xmlns="http://www.w3.org/2000/svg">
<path d="M15.7501 12.25C15.2331 12.2534 14.7233 12.3713 14.2573 12.5952C13.7913 12.8191 13.3808 13.1435 13.0551 13.545L8.59257 11.4888C8.80238 10.8463 8.80238 10.1537 8.59257 9.51125L13.0551 7.455C13.5815 8.09022 14.3154 8.51907 15.1272 8.66586C15.939 8.81265 16.7766 8.66795 17.4922 8.25729C18.2077 7.84663 18.7551 7.19642 19.0379 6.4214C19.3207 5.64638 19.3206 4.79639 19.0377 4.02142C18.7548 3.24645 18.2072 2.59634 17.4916 2.18581C16.776 1.77528 15.9384 1.63073 15.1266 1.77767C14.3148 1.92461 13.581 2.35359 13.0547 2.98891C12.5284 3.62422 12.2434 4.42503 12.2501 5.25C12.2527 5.45845 12.2732 5.6663 12.3113 5.87125L7.69132 7.9975C7.19876 7.51588 6.57503 7.19033 5.89828 7.06163C5.22152 6.93292 4.52182 7.0068 3.88686 7.27399C3.2519 7.54119 2.70991 7.98982 2.3288 8.56368C1.94768 9.13754 1.74438 9.81111 1.74438 10.5C1.74438 11.1889 1.94768 11.8625 2.3288 12.4363C2.70991 13.0102 3.2519 13.4588 3.88686 13.726C4.52182 13.9932 5.22152 14.0671 5.89828 13.9384C6.57503 13.8097 7.19876 13.4841 7.69132 13.0025L12.3113 15.1288C12.2732 15.3337 12.2527 15.5415 12.2501 15.75C12.2501 16.4422 12.4553 17.1189 12.8399 17.6945C13.2245 18.2701 13.7711 18.7187 14.4107 18.9836C15.0502 19.2485 15.754 19.3178 16.4329 19.1828C17.1118 19.0477 17.7355 18.7144 18.2249 18.2249C18.7144 17.7354 19.0478 17.1118 19.1828 16.4328C19.3179 15.7539 19.2486 15.0502 18.9837 14.4106C18.7187 13.7711 18.2701 13.2244 17.6946 12.8399C17.119 12.4553 16.4423 12.25 15.7501 12.25ZM15.7501 3.5C16.0962 3.5 16.4345 3.60264 16.7223 3.79493C17.0101 3.98722 17.2344 4.26053 17.3669 4.58031C17.4993 4.90008 17.534 5.25194 17.4664 5.59141C17.3989 5.93088 17.2322 6.2427 16.9875 6.48744C16.7428 6.73218 16.4309 6.89885 16.0915 6.96638C15.752 7.0339 15.4001 6.99924 15.0804 6.86679C14.7606 6.73434 14.4873 6.51004 14.295 6.22225C14.1027 5.93446 14.0001 5.59612 14.0001 5.25C14.0001 4.78587 14.1844 4.34075 14.5126 4.01256C14.8408 3.68438 15.2859 3.5 15.7501 3.5ZM5.25007 12.25C4.90395 12.25 4.56561 12.1474 4.27782 11.9551C3.99004 11.7628 3.76573 11.4895 3.63328 11.1697C3.50083 10.8499 3.46617 10.4981 3.5337 10.1586C3.60122 9.81913 3.76789 9.50731 4.01263 9.26257C4.25738 9.01782 4.5692 8.85115 4.90866 8.78363C5.24813 8.7161 5.6 8.75076 5.91977 8.88321C6.23954 9.01567 6.51285 9.23997 6.70514 9.52775C6.89743 9.81554 7.00007 10.1539 7.00007 10.5C7.00007 10.9641 6.8157 11.4092 6.48751 11.7374C6.15932 12.0656 5.7142 12.25 5.25007 12.25ZM15.7501 17.5C15.404 17.5 15.0656 17.3974 14.7778 17.2051C14.49 17.0128 14.2657 16.7395 14.1333 16.4197C14.0008 16.0999 13.9662 15.7481 14.0337 15.4086C14.1012 15.0691 14.2679 14.7573 14.5126 14.5126C14.7574 14.2678 15.0692 14.1012 15.4087 14.0336C15.7481 13.9661 16.1 14.0008 16.4198 14.1332C16.7395 14.2657 17.0128 14.49 17.2051 14.7778C17.3974 15.0655 17.5001 15.4039 17.5001 15.75C17.5001 16.2141 17.3157 16.6593 16.9875 16.9874C16.6593 17.3156 16.2142 17.5 15.7501 17.5Z" fill="#FF6F28"/>
</svg>
